<svg width="94" height="94" viewBox="0 0 94 94" fill="none" xmlns="http://www.w3.org/2000/svg">
<g clip-path="url(#clip0_2145_52)">
<path d="M75.4166 25.1667V23.7708C75.4166 19.9183 72.29 16.7917 68.4375 16.7917C64.585 16.7917 61.4583 19.9183 61.4583 23.7708V25.1667C59.9229 25.1667 58.6666 26.4229 58.6666 27.9583V39.125C58.6666 40.6604 59.9229 41.9167 61.4583 41.9167H75.4166C76.952 41.9167 78.2083 40.6604 78.2083 39.125V27.9583C78.2083 26.4229 76.952 25.1667 75.4166 25.1667ZM73.1833 25.1667H63.6916V23.7708C63.6916 21.1467 65.8133 19.025 68.4375 19.025C71.0616 19.025 73.1833 21.1467 73.1833 23.7708V25.1667ZM66.8183 47.5C66.93 48.4213 67.0416 49.3425 67.0416 50.2917C67.0416 56.0983 64.8083 61.3746 61.1791 65.3388C60.4533 63.0775 58.3875 61.4583 55.875 61.4583H53.0833V53.0833C53.0833 51.5479 51.827 50.2917 50.2916 50.2917H33.5416V44.7083H39.125C40.6604 44.7083 41.9166 43.4521 41.9166 41.9167V36.3333H47.5C50.5708 36.3333 53.0833 33.8208 53.0833 30.75V23.6592C50.4312 22.8217 47.6395 22.375 44.7083 22.375C29.2983 22.375 16.7916 34.8817 16.7916 50.2917C16.7916 65.7017 29.2983 78.2083 44.7083 78.2083C60.1183 78.2083 72.625 65.7017 72.625 50.2917C72.625 49.3425 72.5691 48.4213 72.4854 47.5H66.8183ZM41.9166 72.4296C30.8895 71.0617 22.375 61.6817 22.375 50.2917C22.375 48.5608 22.5983 46.9138 22.9612 45.2946L36.3333 58.6667V61.4583C36.3333 64.5292 38.8458 67.0417 41.9166 67.0417V72.4296Z" fill="#54F4FC"/>
</g>
<defs>
<clipPath id="clip0_2145_52">
<rect width="67" height="67" fill="white" transform="translate(14 14)"/>
</clipPath>
</defs>
</svg>
