<svg width="94" height="94" viewBox="0 0 94 94" fill="none" xmlns="http://www.w3.org/2000/svg">
<path d="M60.7083 52.875C60.7083 60.7084 50.9167 66.5834 50.9167 72.4584H43.0833C43.0833 66.5834 33.2917 60.7084 33.2917 52.875C33.2917 45.3159 39.4408 39.1667 47 39.1667C54.5592 39.1667 60.7083 45.3159 60.7083 52.875ZM50.9167 76.375H43.0833V82.25H50.9167V76.375ZM74.4167 50.9167C74.4167 57.4967 72.1058 63.4892 68.2283 68.2284L73.79 73.79C79.0383 67.6409 82.25 59.6509 82.25 50.9167C82.25 40.185 77.4325 30.5892 69.8733 24.1267L64.3117 29.6884C70.4608 34.7017 74.4167 42.3784 74.4167 50.9167ZM62.6667 19.5834L47 3.91669V15.6667C27.5342 15.6667 11.75 31.4509 11.75 50.9167C11.75 59.6509 14.9617 67.6409 20.21 73.79L25.7717 68.2284C21.8942 63.4892 19.5833 57.4967 19.5833 50.9167C19.5833 35.7984 31.8817 23.5 47 23.5V35.25L62.6667 19.5834Z" fill="#54F4FC" fill-opacity="0.87"/>
</svg>
