<svg width="80" height="81" viewBox="0 0 80 81" fill="none" xmlns="http://www.w3.org/2000/svg">
<g clip-path="url(#clip0_2022_133)">
<path d="M77.5394 20.2268L44.0081 2.1262C42.7774 1.45927 41.3998 1.10999 40 1.10999C38.6002 1.10999 37.2226 1.45927 35.9919 2.1262L2.46062 20.2268C1.71656 20.6285 1.09501 21.224 0.661826 21.9502C0.228642 22.6764 -4.24359e-05 23.5063 5.90653e-09 24.3518L5.90653e-09 32.0056C0.00132354 33.2484 0.495609 34.4399 1.3744 35.3187C2.25319 36.1975 3.4447 36.6918 4.6875 36.6931H5V64.8181H4.6875C3.4447 64.8194 2.25319 65.3137 1.3744 66.1925C0.495609 67.0713 0.00132354 68.2628 5.90653e-09 69.5056L5.90653e-09 75.7556C0.00132354 76.9984 0.495609 78.1899 1.3744 79.0687C2.25319 79.9475 3.4447 80.4418 4.6875 80.4431H75.3125C76.5553 80.4418 77.7468 79.9475 78.6256 79.0687C79.5044 78.1899 79.9987 76.9984 80 75.7556V69.5056C79.9987 68.2628 79.5044 67.0713 78.6256 66.1925C77.7468 65.3137 76.5553 64.8194 75.3125 64.8181H75V36.6931H75.3125C76.5553 36.6918 77.7468 36.1975 78.6256 35.3187C79.5044 34.4399 79.9987 33.2484 80 32.0056V24.3518C80.0005 23.5062 79.772 22.6761 79.3388 21.9499C78.9056 21.2236 78.2838 20.6282 77.5394 20.2268ZM75.3125 66.6931C76.0582 66.6939 76.7731 66.9905 77.3003 67.5178C77.8276 68.0451 78.1242 68.7599 78.125 69.5056V75.7556C78.1242 76.5013 77.8276 77.2162 77.3003 77.7434C76.7731 78.2707 76.0582 78.5673 75.3125 78.5681H4.6875C3.94183 78.5673 3.22694 78.2707 2.69968 77.7434C2.17241 77.2162 1.87583 76.5013 1.875 75.7556V69.5056C1.87583 68.7599 2.17241 68.0451 2.69968 67.5178C3.22694 66.9905 3.94183 66.6939 4.6875 66.6931H75.3125ZM6.875 64.8181V36.6931H17.5V64.8181H6.875ZM19.375 64.8181V36.6931H32.8125V64.8181H19.375ZM34.6875 64.8181V36.6931H45.3125V64.8181H34.6875ZM47.1875 64.8181V36.6931H60.625V64.8181H47.1875ZM62.5 64.8181V36.6931H73.125V64.8181H62.5ZM78.125 32.0056C78.1242 32.7513 77.8276 33.4662 77.3003 33.9934C76.7731 34.5207 76.0582 34.8173 75.3125 34.8181H4.6875C3.94183 34.8173 3.22694 34.5207 2.69968 33.9934C2.17241 33.4662 1.87583 32.7513 1.875 32.0056V24.3518C1.87496 23.8445 2.01215 23.3466 2.27204 22.9109C2.53193 22.4752 2.90483 22.1179 3.35125 21.8768L36.8825 3.7762C37.8396 3.25752 38.9111 2.98587 39.9997 2.98587C41.0883 2.98587 42.1597 3.25752 43.1169 3.7762L76.6488 21.8768C77.0952 22.1179 77.4681 22.4752 77.728 22.9109C77.9878 23.3466 78.125 23.8445 78.125 24.3518V32.0056Z" fill="white"/>
<path d="M43.75 12.3181C43.75 11.5764 43.5301 10.8514 43.118 10.2347C42.706 9.61804 42.1203 9.1374 41.4351 8.85357C40.7498 8.56974 39.9958 8.49548 39.2684 8.64017C38.541 8.78487 37.8728 9.14202 37.3484 9.66647C36.8239 10.1909 36.4668 10.8591 36.3221 11.5865C36.1774 12.314 36.2516 13.068 36.5355 13.7532C36.8193 14.4384 37.2999 15.0241 37.9166 15.4361C38.5333 15.8482 39.2583 16.0681 40 16.0681C40.9943 16.0671 41.9475 15.6717 42.6506 14.9687C43.3536 14.2656 43.749 13.3124 43.75 12.3181ZM40 14.1931C39.6292 14.1931 39.2667 14.0831 38.9583 13.8771C38.65 13.6711 38.4096 13.3783 38.2677 13.0356C38.1258 12.693 38.0887 12.316 38.161 11.9523C38.2334 11.5886 38.412 11.2545 38.6742 10.9923C38.9364 10.7301 39.2705 10.5515 39.6342 10.4791C39.9979 10.4068 40.3749 10.4439 40.7175 10.5858C41.0601 10.7278 41.353 10.9681 41.559 11.2764C41.765 11.5848 41.875 11.9473 41.875 12.3181C41.875 12.8154 41.6775 13.2923 41.3258 13.6439C40.9742 13.9956 40.4973 14.1931 40 14.1931Z" fill="white"/>
<path d="M34.5312 19.1931C33.496 19.1545 32.4876 19.5273 31.7263 20.2299C30.9651 20.9326 30.513 21.9081 30.4688 22.9431V30.1306C30.4688 30.3792 30.5675 30.6177 30.7433 30.7935C30.9192 30.9693 31.1576 31.0681 31.4062 31.0681C31.6549 31.0681 31.8933 30.9693 32.0692 30.7935C32.245 30.6177 32.3438 30.3792 32.3438 30.1306V27.0056H36.7188V30.1306C36.7188 30.3792 36.8175 30.6177 36.9933 30.7935C37.1692 30.9693 37.4076 31.0681 37.6562 31.0681C37.9049 31.0681 38.1433 30.9693 38.3192 30.7935C38.495 30.6177 38.5938 30.3792 38.5938 30.1306V22.9431C38.5495 21.9081 38.0974 20.9326 37.3362 20.2299C36.5749 19.5273 35.5665 19.1545 34.5312 19.1931ZM36.7188 25.1306H32.3438V22.9431C32.3438 21.785 33.4794 21.0681 34.5312 21.0681C35.5831 21.0681 36.7188 21.785 36.7188 22.9431V25.1306Z" fill="white"/>
<path d="M23.285 19.1931H20.4688C19.9715 19.1931 19.4946 19.3906 19.1429 19.7422C18.7913 20.0939 18.5938 20.5708 18.5938 21.0681V29.1931C18.5938 29.6903 18.7913 30.1672 19.1429 30.5189C19.4946 30.8705 19.9715 31.0681 20.4688 31.0681H23.285C24.1954 31.0671 25.0682 30.705 25.7119 30.0612C26.3557 29.4175 26.7178 28.5447 26.7188 27.6343V27.6268C26.7185 27.1587 26.6222 26.6957 26.4358 26.2663C26.2493 25.8369 25.9768 25.4504 25.635 25.1306C26.1373 24.6596 26.4863 24.0484 26.6368 23.3765C26.7873 22.7046 26.7323 22.003 26.4789 21.3627C26.2255 20.7225 25.7854 20.1733 25.2159 19.7863C24.6463 19.3994 23.9736 19.1927 23.285 19.1931ZM24.8438 27.6343C24.8428 28.0474 24.6782 28.4433 24.3861 28.7354C24.094 29.0275 23.6981 29.1921 23.285 29.1931H20.4688V26.0681H23.285C23.6981 26.069 24.094 26.2336 24.3861 26.5257C24.6782 26.8178 24.8428 27.2137 24.8438 27.6268V27.6343ZM23.285 24.1931H20.4688V21.0681H23.285C23.6994 21.0681 24.0968 21.2327 24.3899 21.5257C24.6829 21.8187 24.8475 22.2162 24.8475 22.6306C24.8475 23.045 24.6829 23.4424 24.3899 23.7354C24.0968 24.0284 23.6994 24.1931 23.285 24.1931Z" fill="white"/>
<path d="M48.5938 19.1931C48.3451 19.1931 48.1067 19.2919 47.9308 19.4677C47.755 19.6435 47.6562 19.8819 47.6562 20.1306V26.9668L44.3994 19.645C44.2698 19.3982 44.0618 19.2016 43.8082 19.086C43.5545 18.9705 43.2697 18.9425 42.9985 19.0066C42.7272 19.0707 42.485 19.2231 42.3099 19.44C42.1348 19.6568 42.0368 19.9257 42.0312 20.2043V30.1306C42.0312 30.3792 42.13 30.6177 42.3058 30.7935C42.4817 30.9693 42.7201 31.0681 42.9688 31.0681C43.2174 31.0681 43.4558 30.9693 43.6317 30.7935C43.8075 30.6177 43.9062 30.3792 43.9062 30.1306V23.1487L47.1394 30.4175C47.2585 30.6755 47.4619 30.8855 47.7161 31.0128C47.9702 31.1401 48.2601 31.1773 48.5382 31.1182C48.8162 31.0591 49.0659 30.9073 49.2464 30.6877C49.4268 30.468 49.5273 30.1936 49.5312 29.9093V20.1306C49.5312 19.8819 49.4325 19.6435 49.2567 19.4677C49.0808 19.2919 48.8424 19.1931 48.5938 19.1931Z" fill="white"/>
<path d="M61.1525 19.5056C60.9823 19.3243 60.7471 19.2181 60.4987 19.2102C60.2502 19.2024 60.0088 19.2936 59.8275 19.4637L56.0937 22.9637V20.1306C56.0937 19.8819 55.995 19.6435 55.8192 19.4676C55.6433 19.2918 55.4049 19.1931 55.1562 19.1931C54.9076 19.1931 54.6692 19.2918 54.4933 19.4676C54.3175 19.6435 54.2188 19.8819 54.2188 20.1306V30.1306C54.2188 30.3792 54.3175 30.6177 54.4933 30.7935C54.6692 30.9693 54.9076 31.0681 55.1562 31.0681C55.4049 31.0681 55.6433 30.9693 55.8192 30.7935C55.995 30.6177 56.0937 30.3792 56.0937 30.1306V27.3006L59.8262 30.8131C59.9154 30.9001 60.0209 30.9685 60.1368 31.0142C60.2526 31.06 60.3764 31.0822 60.5009 31.0796C60.6255 31.077 60.7482 31.0496 60.8621 30.999C60.9759 30.9484 61.0785 30.8756 61.1638 30.7849C61.2492 30.6942 61.3157 30.5874 61.3593 30.4708C61.4029 30.3541 61.4229 30.2299 61.418 30.1054C61.4131 29.981 61.3835 29.8588 61.3308 29.7459C61.2781 29.633 61.2035 29.5318 61.1112 29.4481L56.525 25.1306L61.11 20.8281C61.2906 20.6581 61.3964 20.4234 61.4044 20.1756C61.4123 19.9277 61.3218 19.6868 61.1525 19.5056Z" fill="white"/>
</g>
<defs>
<clipPath id="clip0_2022_133">
<rect width="80" height="80" fill="white" transform="translate(0 0.443115)"/>
</clipPath>
</defs>
</svg>
