<svg width="80" height="81" viewBox="0 0 80 81" fill="none" xmlns="http://www.w3.org/2000/svg">
<g clip-path="url(#clip0_2022_143)">
<path d="M62.2656 5.44312H17.7344C17.4443 5.44312 17.1661 5.55835 16.961 5.76347C16.7559 5.96858 16.6406 6.24678 16.6406 6.53686V68.0943C16.6406 68.3844 16.7559 68.6626 16.961 68.8677C17.1661 69.0729 17.4443 69.1881 17.7344 69.1881H62.2656C62.5557 69.1881 62.8339 69.0729 63.039 68.8677C63.2441 68.6626 63.3594 68.3844 63.3594 68.0943V6.53686C63.3594 6.24678 63.2441 5.96858 63.039 5.76347C62.8339 5.55835 62.5557 5.44312 62.2656 5.44312ZM61.1719 67.0006H18.8281V7.63061H61.1719V67.0006Z" fill="white"/>
<path d="M63.5156 0.443115H16.4844C15.2002 0.444604 13.969 0.955404 13.061 1.86346C12.1529 2.77152 11.6421 4.00268 11.6406 5.28687V75.5994C11.6421 76.8836 12.1529 78.1147 13.061 79.0228C13.969 79.9308 15.2002 80.4416 16.4844 80.4431H63.5156C64.7998 80.4416 66.031 79.9308 66.939 79.0228C67.8471 78.1147 68.3579 76.8836 68.3594 75.5994V5.28687C68.3579 4.00268 67.8471 2.77152 66.939 1.86346C66.031 0.955404 64.7998 0.444604 63.5156 0.443115ZM29.8044 78.2556V75.5981C29.8049 75.2253 29.9532 74.8679 30.2168 74.6043C30.4804 74.3407 30.8378 74.1924 31.2106 74.1919H48.7887C49.1616 74.1924 49.519 74.3407 49.7826 74.6043C50.0462 74.8679 50.1945 75.2253 50.195 75.5981V78.2556H29.8044ZM66.1719 75.5994C66.171 76.3036 65.8909 76.9787 65.393 77.4767C64.895 77.9747 64.2199 78.2548 63.5156 78.2556H52.3825V75.5981C52.3815 74.6453 52.0026 73.7318 51.3288 73.058C50.6551 72.3843 49.7416 72.0054 48.7887 72.0044H31.2106C30.2579 72.0055 29.3444 72.3845 28.6707 73.0582C27.997 73.7319 27.618 74.6453 27.6169 75.5981V78.2556H16.4844C15.7801 78.2548 15.105 77.9747 14.607 77.4767C14.1091 76.9787 13.829 76.3036 13.8281 75.5994V5.28687C13.829 4.58264 14.1091 3.90749 14.607 3.40953C15.105 2.91156 15.7801 2.63144 16.4844 2.63062H63.5156C64.2199 2.63144 64.895 2.91156 65.393 3.40953C65.8909 3.90749 66.171 4.58264 66.1719 5.28687V75.5994Z" fill="white"/>
<path d="M26.6794 54.5625H53.32C53.4637 54.5626 53.6059 54.5343 53.7387 54.4794C53.8714 54.4245 53.992 54.3439 54.0936 54.2423C54.1952 54.1407 54.2757 54.0201 54.3307 53.8874C54.3856 53.7547 54.4138 53.6124 54.4138 53.4687V48.2975C54.4138 48.0074 54.2985 47.7292 54.0934 47.5241C53.8883 47.319 53.6101 47.2037 53.32 47.2037H51.6413V39.2356H53.32C53.4637 39.2357 53.6059 39.2075 53.7387 39.1525C53.8714 39.0976 53.992 39.017 54.0936 38.9154C54.1952 38.8139 54.2757 38.6932 54.3307 38.5605C54.3856 38.4278 54.4138 38.2855 54.4138 38.1419V33.4587C54.4138 33.251 54.3546 33.0477 54.2433 32.8723C54.1319 32.697 53.973 32.557 53.785 32.4687L40.465 26.2131C40.3194 26.1452 40.1607 26.11 40 26.11C39.8393 26.11 39.6806 26.1452 39.535 26.2131L26.215 32.4687C26.027 32.557 25.8679 32.697 25.7565 32.8723C25.645 33.0476 25.5858 33.251 25.5856 33.4587V38.1419C25.5856 38.4319 25.7009 38.7101 25.906 38.9153C26.1111 39.1204 26.3893 39.2356 26.6794 39.2356H28.3588V47.2037H26.6794C26.3894 47.2039 26.1112 47.3192 25.9062 47.5243C25.7011 47.7294 25.5858 48.0075 25.5856 48.2975V53.4687C25.5856 53.7588 25.7009 54.037 25.906 54.2421C26.1111 54.4473 26.3893 54.5625 26.6794 54.5625ZM49.4538 47.2037H47.2663V39.2356H49.4538V47.2037ZM43.2813 47.2037V39.2356H45.0788V47.2037H43.2813ZM34.9213 47.2037V39.2356H36.7188V47.2037H34.9213ZM38.9063 39.2356H41.0938V47.2037H38.9063V39.2356ZM27.7731 34.1531L40 28.4119L52.2263 34.1531V37.0481H27.7731V34.1531ZM30.5463 39.2356H32.7338V47.2037H30.5463V39.2356ZM27.7731 49.3912H52.2263V52.375H27.7731V49.3912Z" fill="white"/>
</g>
<defs>
<clipPath id="clip0_2022_143">
<rect width="80" height="80" fill="white" transform="translate(0 0.443115)"/>
</clipPath>
</defs>
</svg>
