<svg width="94" height="94" viewBox="0 0 94 94" fill="none" xmlns="http://www.w3.org/2000/svg">
<path d="M46.93 47.5897C50.8148 47.5897 53.9508 44.4538 53.9508 40.569C53.9508 36.6842 50.8148 33.5482 46.93 33.5482C43.0452 33.5482 39.9092 36.6842 39.9092 40.569C39.9092 44.4538 43.0452 47.5897 46.93 47.5897ZM46.93 49.93C42.6239 49.93 38.5987 51.1001 35.1585 53.1361C33.731 53.9552 32.8885 55.5232 32.8885 57.1614V61.6313H60.9715V57.1614C60.9715 55.5232 60.129 53.9786 58.7015 53.1361C55.2613 51.1001 51.2361 49.93 46.93 49.93ZM68.5305 40.92L72.86 39.118C70.0049 32.3079 64.5521 26.8317 57.742 24L55.94 28.3295C61.6034 30.7165 66.1435 35.2566 68.5305 40.92ZM37.92 28.3295L36.118 24C29.3079 26.8551 23.8551 32.3079 21 39.118L25.3295 40.92C27.7165 35.2566 32.2566 30.7165 37.92 28.3295ZM25.3295 58.94L21 60.742C23.8551 67.5521 29.3079 73.0283 36.118 75.86L37.92 71.5305C32.2566 69.1435 27.7165 64.6034 25.3295 58.94ZM55.94 71.5305L57.742 75.86C64.5521 73.0049 70.0283 67.5521 72.86 60.742L68.5305 58.94C66.1435 64.6034 61.6034 69.1435 55.94 71.5305Z" fill="#49D4DB"/>
</svg>
