<svg width="80" height="81" viewBox="0 0 80 81" fill="none" xmlns="http://www.w3.org/2000/svg">
<path d="M76.1626 17.8321L18.8639 7.61145C16.3529 7.15984 13.9136 8.91661 13.4781 11.414L9.78775 32.5844H4.51613C2.02581 32.5844 0 34.6108 0 37.1005V68.8295C0 71.3192 2.02581 73.3457 4.51613 73.3457H62.9594C65.4497 73.3457 67.4755 71.3192 67.4755 68.8295V57.6727C69.1497 57.9715 70.7658 58.3237 72.3136 57.3979C73.4749 56.7031 74.3078 55.505 74.5407 54.1702L79.9291 23.2566C80.3723 20.714 78.6826 18.2805 76.1626 17.8321ZM16.0207 11.8573C16.2142 10.7482 17.2903 9.95145 18.411 10.1514L75.7097 20.3721C76.8342 20.5727 77.5865 21.6676 77.3871 22.8127L76.4981 27.916L15.129 16.9702L16.0207 11.8573ZM64.8949 68.8295C64.8949 69.8966 64.0265 70.765 62.9594 70.765H4.51613C3.44903 70.765 2.58065 69.8966 2.58065 68.8295V37.1005C2.58065 36.0334 3.44903 35.165 4.51613 35.165H62.9594C64.0265 35.165 64.8949 36.0334 64.8949 37.1005V68.8295ZM71.9988 53.7269C71.5975 56.0218 69.0491 55.3321 67.4755 55.0515V37.1005C67.4755 34.6108 65.4497 32.5844 62.9594 32.5844H12.4078L14.6858 19.5121L18.4239 20.1785L76.0542 30.4579L71.9988 53.7269Z" fill="white"/>
<path d="M30.3994 65.6063H22.98C22.2678 65.6063 21.6897 65.0282 21.6897 64.316C21.6897 63.6037 22.2678 63.0256 22.98 63.0256H30.3994C31.1116 63.0256 31.6897 63.6037 31.6897 64.316C31.6897 65.0282 31.1123 65.6063 30.3994 65.6063Z" fill="white"/>
<path d="M16.3039 65.6063H8.8845C8.17224 65.6063 7.59418 65.0282 7.59418 64.316C7.59418 63.6037 8.17224 63.0256 8.8845 63.0256H16.3039C17.0161 63.0256 17.5942 63.6037 17.5942 64.316C17.5942 65.0282 17.0161 65.6063 16.3039 65.6063Z" fill="white"/>
<path d="M44.4948 65.6063H37.0755C36.3632 65.6063 35.7852 65.0282 35.7852 64.316C35.7852 63.6037 36.3632 63.0256 37.0755 63.0256H44.4948C45.2071 63.0256 45.7852 63.6037 45.7852 64.316C45.7852 65.0282 45.2077 65.6063 44.4948 65.6063Z" fill="white"/>
<path d="M58.591 65.6063H51.1716C50.4594 65.6063 49.8813 65.0282 49.8813 64.316C49.8813 63.6037 50.4594 63.0256 51.1716 63.0256H58.591C59.3032 63.0256 59.8813 63.6037 59.8813 64.316C59.8813 65.0282 59.3032 65.6063 58.591 65.6063Z" fill="white"/>
<path d="M19.6374 58.9121H10.2916C8.51289 58.9121 7.0658 57.465 7.0658 55.6863V51.9805C7.0658 50.2018 8.51289 48.7547 10.2916 48.7547H19.6374C21.4161 48.7547 22.8632 50.2018 22.8632 51.9805V55.6863C22.8632 57.4644 21.4155 58.9121 19.6374 58.9121ZM10.2916 51.3347C9.93612 51.3347 9.64644 51.6237 9.64644 51.9799V55.6857C9.64644 56.0418 9.93612 56.3308 10.2916 56.3308H19.6374C19.9929 56.3308 20.2826 56.0418 20.2826 55.6857V51.9799C20.2826 51.6237 19.9929 51.3347 19.6374 51.3347H10.2916Z" fill="white"/>
</svg>
