<svg width="80" height="81" viewBox="0 0 80 81" fill="none" xmlns="http://www.w3.org/2000/svg">
<g clip-path="url(#clip0_2022_157)">
<path d="M33.7578 49.49H31.7985C31.4669 49.49 31.149 49.6217 30.9146 49.8561C30.6802 50.0905 30.5485 50.4085 30.5485 50.74C30.5485 51.0715 30.6802 51.3895 30.9146 51.6239C31.149 51.8583 31.4669 51.99 31.7985 51.99H35.1844V54.6619C35.1844 54.9934 35.3161 55.3113 35.5505 55.5457C35.7849 55.7802 36.1029 55.9119 36.4344 55.9119C36.7659 55.9119 37.0839 55.7802 37.3183 55.5457C37.5527 55.3113 37.6844 54.9934 37.6844 54.6619V51.99H42.3157V54.6619C42.3157 54.9934 42.4473 55.3113 42.6818 55.5457C42.9162 55.7802 43.2341 55.9119 43.5657 55.9119C43.8972 55.9119 44.2151 55.7802 44.4495 55.5457C44.684 55.3113 44.8157 54.9934 44.8157 54.6619V51.7791C45.948 51.4779 46.9726 50.8639 47.7722 50.0075C48.5718 49.1511 49.1141 48.0868 49.337 46.9365C49.5599 45.7862 49.4544 44.5964 49.0325 43.5033C48.6106 42.4102 47.8895 41.4579 46.9516 40.7556C47.8895 40.0533 48.6106 39.1011 49.0325 38.008C49.4544 36.9149 49.5599 35.7251 49.337 34.5748C49.1141 33.4245 48.5718 32.3602 47.7722 31.5037C46.9726 30.6473 45.948 30.0334 44.8157 29.7322V26.8494C44.8157 26.5178 44.684 26.1999 44.4495 25.9655C44.2151 25.7311 43.8972 25.5994 43.5657 25.5994C43.2341 25.5994 42.9162 25.7311 42.6818 25.9655C42.4473 26.1999 42.3157 26.5178 42.3157 26.8494V29.5212H37.6844V26.8494C37.6844 26.5178 37.5527 26.1999 37.3183 25.9655C37.0839 25.7311 36.7659 25.5994 36.4344 25.5994C36.1029 25.5994 35.7849 25.7311 35.5505 25.9655C35.3161 26.1999 35.1844 26.5178 35.1844 26.8494V29.5212H31.7985C31.4669 29.5212 31.149 29.6529 30.9146 29.8874C30.6802 30.1218 30.5485 30.4397 30.5485 30.7712C30.5485 31.1028 30.6802 31.4207 30.9146 31.6551C31.149 31.8895 31.4669 32.0212 31.7985 32.0212H33.7578V49.49ZM46.9516 45.7556C46.9495 46.7475 46.5546 47.6981 45.8532 48.3995C45.1519 49.1008 44.2013 49.4957 43.2094 49.4978H36.2578V42.0056H43.2094C44.2026 42.0077 45.1544 42.4037 45.856 43.1067C46.5576 43.8098 46.9516 44.7624 46.9516 45.7556ZM46.9516 35.7712C46.9475 36.7617 46.5516 37.7104 45.8505 38.41C45.1494 39.1097 44.1999 39.5036 43.2094 39.5056H36.2578V32.0212H43.2094C44.2013 32.0233 45.1519 32.4182 45.8532 33.1196C46.5546 33.8209 46.9495 34.7716 46.9516 35.7634V35.7712Z" fill="white"/>
<path d="M74.375 19.0369H77.1875C77.9334 19.0369 78.6488 18.7405 79.1762 18.2131C79.7037 17.6857 80 16.9703 80 16.2244V13.4119C80 12.6659 79.7037 11.9506 79.1762 11.4231C78.6488 10.8957 77.9334 10.5994 77.1875 10.5994H74.375C73.6291 10.5994 72.9137 10.8957 72.3863 11.4231C71.8588 11.9506 71.5625 12.6659 71.5625 13.4119V13.5681H66.25C65.9185 13.5681 65.6005 13.6998 65.3661 13.9342C65.1317 14.1687 65 14.4866 65 14.8181V19.2587H62.1094C56.6416 13.5326 49.1613 10.1573 41.25 9.84624V5.91187H52.6562V6.06812C52.6562 6.81404 52.9526 7.52941 53.48 8.05685C54.0075 8.5843 54.7228 8.88062 55.4688 8.88062H58.2812C59.0272 8.88062 59.7425 8.5843 60.27 8.05685C60.7974 7.52941 61.0938 6.81404 61.0938 6.06812V3.25562C61.0938 2.50969 60.7974 1.79432 60.27 1.26688C59.7425 0.739431 59.0272 0.443115 58.2812 0.443115L55.4688 0.443115C54.7228 0.443115 54.0075 0.739431 53.48 1.26688C52.9526 1.79432 52.6562 2.50969 52.6562 3.25562V3.41187H40C39.6685 3.41187 39.3505 3.54356 39.1161 3.77798C38.8817 4.0124 38.75 4.33034 38.75 4.66187V9.84624C32.5923 10.0906 26.6537 12.1974 21.7188 15.8884V12.1619C21.7188 11.8303 21.5871 11.5124 21.3526 11.278C21.1182 11.0436 20.8003 10.9119 20.4688 10.9119H12.8125V8.88062H12.9688C13.7147 8.88062 14.43 8.5843 14.9575 8.05685C15.4849 7.52941 15.7812 6.81404 15.7812 6.06812V3.25562C15.7812 2.50969 15.4849 1.79432 14.9575 1.26688C14.43 0.739431 13.7147 0.443115 12.9688 0.443115L10.1562 0.443115C9.41033 0.443115 8.69496 0.739431 8.16751 1.26688C7.64007 1.79432 7.34375 2.50969 7.34375 3.25562V6.06812C7.34375 6.81404 7.64007 7.52941 8.16751 8.05685C8.69496 8.5843 9.41033 8.88062 10.1562 8.88062H10.3125V12.1619C10.3125 12.4934 10.4442 12.8113 10.6786 13.0457C10.913 13.2802 11.231 13.4119 11.5625 13.4119H19.2188V17.9697C16.2692 20.6895 13.8843 23.9636 12.2001 27.6052C10.5159 31.2467 9.56553 35.1843 9.40312 39.1931H5.46875V28.7244H5.625C6.37092 28.7244 7.08629 28.428 7.61374 27.9006C8.14118 27.3732 8.4375 26.6578 8.4375 25.9119V23.0994C8.4375 22.3534 8.14118 21.6381 7.61374 21.1106C7.08629 20.5832 6.37092 20.2869 5.625 20.2869H2.8125C2.06658 20.2869 1.35121 20.5832 0.823762 21.1106C0.296316 21.6381 0 22.3534 0 23.0994L0 25.9119C0 26.6578 0.296316 27.3732 0.823762 27.9006C1.35121 28.428 2.06658 28.7244 2.8125 28.7244H2.96875V40.4431C2.96875 40.7746 3.10045 41.0926 3.33487 41.327C3.56929 41.5614 3.88723 41.6931 4.21875 41.6931H9.40312C9.66384 48.2348 12.0247 54.5185 16.1359 59.6134H6.875C6.54348 59.6134 6.22554 59.7451 5.99112 59.9795C5.7567 60.214 5.625 60.5319 5.625 60.8634V66.2244H5.46875C4.72283 66.2244 4.00746 66.5207 3.48001 67.0481C2.95257 67.5756 2.65625 68.2909 2.65625 69.0369V71.8494C2.65625 72.5953 2.95257 73.3107 3.48001 73.8381C4.00746 74.3656 4.72283 74.6619 5.46875 74.6619H8.28125C9.02717 74.6619 9.74254 74.3656 10.27 73.8381C10.7974 73.3107 11.0938 72.5953 11.0938 71.8494V69.0369C11.0938 68.2909 10.7974 67.5756 10.27 67.0481C9.74254 66.5207 9.02717 66.2244 8.28125 66.2244H8.125V62.1134H18.3813C23.8068 67.5443 31.0795 70.7316 38.75 71.04V74.9744H28.125V74.8181C28.125 74.0722 27.8287 73.3568 27.3012 72.8294C26.7738 72.3019 26.0584 72.0056 25.3125 72.0056H22.5C21.7541 72.0056 21.0387 72.3019 20.5113 72.8294C19.9838 73.3568 19.6875 74.0722 19.6875 74.8181V77.6306C19.6875 78.3765 19.9838 79.0919 20.5113 79.6194C21.0387 80.1468 21.7541 80.4431 22.5 80.4431H25.3125C26.0584 80.4431 26.7738 80.1468 27.3012 79.6194C27.8287 79.0919 28.125 78.3765 28.125 77.6306V77.4744H40C40.3315 77.4744 40.6495 77.3427 40.8839 77.1082C41.1183 76.8738 41.25 76.5559 41.25 76.2244V71.04C47.1626 70.8056 52.8789 68.8537 57.7 65.4228V70.4431C57.7 70.7746 57.8317 71.0926 58.0661 71.327C58.3005 71.5614 58.6185 71.6931 58.95 71.6931H66.5625V71.8494C66.5625 72.5953 66.8588 73.3107 67.3863 73.8381C67.9137 74.3656 68.6291 74.6619 69.375 74.6619H72.1875C72.9334 74.6619 73.6488 74.3656 74.1762 73.8381C74.7037 73.3107 75 72.5953 75 71.8494V69.0369C75 68.2909 74.7037 67.5756 74.1762 67.0481C73.6488 66.5207 72.9334 66.2244 72.1875 66.2244H69.375C68.6291 66.2244 67.9137 66.5207 67.3863 67.0481C66.8588 67.5756 66.5625 68.2909 66.5625 69.0369V69.1931H60.2V63.4416C63.476 60.5722 66.1009 57.0358 67.8988 53.0694C69.6968 49.1029 70.6263 44.798 70.625 40.4431C70.6251 39.2421 70.5552 38.0422 70.4156 36.8494H74.5312V48.8806H74.375C73.6291 48.8806 72.9137 49.1769 72.3863 49.7044C71.8588 50.2318 71.5625 50.9472 71.5625 51.6931V54.5056C71.5625 55.2515 71.8588 55.9669 72.3863 56.4944C72.9137 57.0218 73.6291 57.3181 74.375 57.3181H77.1875C77.9334 57.3181 78.6488 57.0218 79.1762 56.4944C79.7037 55.9669 80 55.2515 80 54.5056V51.6931C80 50.9472 79.7037 50.2318 79.1762 49.7044C78.6488 49.1769 77.9334 48.8806 77.1875 48.8806H77.0312V35.5994C77.0312 35.2678 76.8996 34.9499 76.6651 34.7155C76.4307 34.4811 76.1128 34.3494 75.7812 34.3494H70.0172C69.7648 33.0952 69.4328 31.8583 69.0234 30.6462C68.9138 30.337 68.6869 30.0832 68.3918 29.9397C68.0967 29.7963 67.757 29.7746 67.446 29.8794C67.1351 29.9842 66.8778 30.2071 66.7298 30.5C66.5817 30.7928 66.5547 31.1321 66.6547 31.4447C67.6321 34.3439 68.1288 37.3835 68.125 40.4431C68.125 55.9509 55.5078 68.5681 40 68.5681C24.4922 68.5681 11.875 55.9509 11.875 40.4431C11.875 24.9353 24.4922 12.3181 40 12.3181C43.862 12.3075 47.6844 13.0968 51.2263 14.6364C54.7682 16.1759 57.9529 18.4323 60.5797 21.2634C60.6237 21.3194 60.6723 21.3717 60.725 21.4197C61.8747 22.6766 62.9101 24.0335 63.8187 25.4744C63.906 25.6135 64.0197 25.7341 64.1535 25.8292C64.2873 25.9244 64.4386 25.9922 64.5986 26.029C64.7586 26.0657 64.9243 26.0705 65.0862 26.0432C65.2481 26.0158 65.4031 25.9569 65.5422 25.8697C65.6813 25.7825 65.8019 25.6687 65.897 25.5349C65.9922 25.4011 66.0601 25.2499 66.0968 25.0898C66.1335 24.9298 66.1383 24.7641 66.111 24.6022C66.0837 24.4403 66.0247 24.2854 65.9375 24.1462C65.4167 23.3244 64.8609 22.5285 64.2703 21.7587H66.25C66.5815 21.7587 66.8995 21.627 67.1339 21.3926C67.3683 21.1582 67.5 20.8403 67.5 20.5087V16.0681H71.5625V16.2244C71.5625 16.9703 71.8588 17.6857 72.3863 18.2131C72.9137 18.7405 73.6291 19.0369 74.375 19.0369ZM55.1562 3.25562C55.1562 3.17273 55.1892 3.09325 55.2478 3.03464C55.3064 2.97604 55.3859 2.94312 55.4688 2.94312H58.2812C58.3641 2.94312 58.4436 2.97604 58.5022 3.03464C58.5608 3.09325 58.5938 3.17273 58.5938 3.25562V6.06812C58.5938 6.151 58.5608 6.23048 58.5022 6.28909C58.4436 6.34769 58.3641 6.38062 58.2812 6.38062H55.4688C55.3859 6.38062 55.3064 6.34769 55.2478 6.28909C55.1892 6.23048 55.1562 6.151 55.1562 6.06812V3.25562ZM9.84375 6.06812V3.25562C9.84375 3.17273 9.87667 3.09325 9.93528 3.03464C9.99388 2.97604 10.0734 2.94312 10.1562 2.94312H12.9688C13.0516 2.94312 13.1311 2.97604 13.1897 3.03464C13.2483 3.09325 13.2812 3.17273 13.2812 3.25562V6.06812C13.2812 6.151 13.2483 6.23048 13.1897 6.28909C13.1311 6.34769 13.0516 6.38062 12.9688 6.38062H10.1562C10.0734 6.38062 9.99388 6.34769 9.93528 6.28909C9.87667 6.23048 9.84375 6.151 9.84375 6.06812ZM2.5 25.9119V23.0994C2.5 23.0165 2.53292 22.937 2.59153 22.8784C2.65013 22.8198 2.72962 22.7869 2.8125 22.7869H5.625C5.70788 22.7869 5.78737 22.8198 5.84597 22.8784C5.90458 22.937 5.9375 23.0165 5.9375 23.0994V25.9119C5.9375 25.9947 5.90458 26.0742 5.84597 26.1328C5.78737 26.1914 5.70788 26.2244 5.625 26.2244H2.8125C2.72962 26.2244 2.65013 26.1914 2.59153 26.1328C2.53292 26.0742 2.5 25.9947 2.5 25.9119ZM8.59375 69.0369V71.8494C8.59375 71.9322 8.56083 72.0117 8.50222 72.0703C8.44362 72.1289 8.36413 72.1619 8.28125 72.1619H5.46875C5.38587 72.1619 5.30638 72.1289 5.24778 72.0703C5.18917 72.0117 5.15625 71.9322 5.15625 71.8494V69.0369C5.15625 68.954 5.18917 68.8745 5.24778 68.8159C5.30638 68.7573 5.38587 68.7244 5.46875 68.7244H8.28125C8.36413 68.7244 8.44362 68.7573 8.50222 68.8159C8.56083 68.8745 8.59375 68.954 8.59375 69.0369ZM25.625 77.6306C25.625 77.7135 25.5921 77.793 25.5335 77.8516C25.4749 77.9102 25.3954 77.9431 25.3125 77.9431H22.5C22.4171 77.9431 22.3376 77.9102 22.279 77.8516C22.2204 77.793 22.1875 77.7135 22.1875 77.6306V74.8181C22.1875 74.7352 22.2204 74.6557 22.279 74.5971C22.3376 74.5385 22.4171 74.5056 22.5 74.5056H25.3125C25.3954 74.5056 25.4749 74.5385 25.5335 74.5971C25.5921 74.6557 25.625 74.7352 25.625 74.8181V77.6306ZM69.0625 69.0369C69.0625 68.954 69.0954 68.8745 69.154 68.8159C69.2126 68.7573 69.2921 68.7244 69.375 68.7244H72.1875C72.2704 68.7244 72.3499 68.7573 72.4085 68.8159C72.4671 68.8745 72.5 68.954 72.5 69.0369V71.8494C72.5 71.9322 72.4671 72.0117 72.4085 72.0703C72.3499 72.1289 72.2704 72.1619 72.1875 72.1619H69.375C69.2921 72.1619 69.2126 72.1289 69.154 72.0703C69.0954 72.0117 69.0625 71.9322 69.0625 71.8494V69.0369ZM77.5 51.6931V54.5056C77.5 54.5885 77.4671 54.668 77.4085 54.7266C77.3499 54.7852 77.2704 54.8181 77.1875 54.8181H74.375C74.2921 54.8181 74.2126 54.7852 74.154 54.7266C74.0954 54.668 74.0625 54.5885 74.0625 54.5056V51.6931C74.0625 51.6102 74.0954 51.5308 74.154 51.4721C74.2126 51.4135 74.2921 51.3806 74.375 51.3806H77.1875C77.2704 51.3806 77.3499 51.4135 77.4085 51.4721C77.4671 51.5308 77.5 51.6102 77.5 51.6931ZM74.0625 13.4119C74.0625 13.329 74.0954 13.2495 74.154 13.1909C74.2126 13.1323 74.2921 13.0994 74.375 13.0994H77.1875C77.2704 13.0994 77.3499 13.1323 77.4085 13.1909C77.4671 13.2495 77.5 13.329 77.5 13.4119V16.2244C77.5 16.3072 77.4671 16.3867 77.4085 16.4453C77.3499 16.5039 77.2704 16.5369 77.1875 16.5369H74.375C74.2921 16.5369 74.2126 16.5039 74.154 16.4453C74.0954 16.3867 74.0625 16.3072 74.0625 16.2244V13.4119Z" fill="white"/>
<path d="M22.8204 29.9322C22.5284 29.7761 22.1863 29.7422 21.8694 29.838C21.5524 29.9338 21.2864 30.1514 21.1297 30.4431C19.5014 33.5248 18.6507 36.9577 18.6516 40.4431C18.6516 52.215 28.2282 61.7916 40.0001 61.7916C51.7719 61.7916 61.3485 52.215 61.3485 40.4431C61.3485 28.6713 51.7719 19.0947 40.0001 19.0947C35.4143 19.0817 30.9483 20.5578 27.2735 23.3009C27.1377 23.3973 27.0226 23.5197 26.9348 23.6612C26.847 23.8026 26.7884 23.9601 26.7623 24.1245C26.7362 24.2889 26.7432 24.4569 26.7829 24.6185C26.8226 24.7802 26.8942 24.9323 26.9935 25.0659C27.0927 25.1995 27.2177 25.3119 27.361 25.3966C27.5043 25.4813 27.6631 25.5365 27.828 25.5589C27.993 25.5814 28.1607 25.5707 28.3215 25.5275C28.4822 25.4843 28.6327 25.4094 28.7641 25.3072C32.4833 22.5494 37.0884 21.259 41.6991 21.6826C46.3097 22.1062 50.6026 24.2141 53.757 27.6034C56.9114 30.9927 58.7061 35.4257 58.798 40.0549C58.89 44.6841 57.2727 49.1848 54.2553 52.6966C51.2379 56.2085 47.0321 58.4852 42.4419 59.0915C37.8517 59.6978 33.199 58.5912 29.3733 55.9833C25.5475 53.3753 22.8171 49.4489 21.7039 44.9546C20.5907 40.4603 21.1729 35.7134 23.3391 31.6213C23.4941 31.3285 23.5266 30.9861 23.4293 30.6694C23.332 30.3526 23.113 30.0875 22.8204 29.9322Z" fill="white"/>
<path d="M24.9531 28.3665C25.1304 28.3667 25.3056 28.3292 25.4673 28.2564C25.6289 28.1837 25.7732 28.0774 25.8906 27.9447L25.9844 27.84C26.2061 27.5934 26.3208 27.2689 26.3032 26.9377C26.2856 26.6066 26.1372 26.296 25.8906 26.0743C25.6441 25.8526 25.3195 25.738 24.9884 25.7555C24.6573 25.7731 24.3467 25.9215 24.125 26.1681L24.0188 26.2884C23.8592 26.4688 23.7552 26.6914 23.7191 26.9295C23.6831 27.1676 23.7166 27.411 23.8157 27.6306C23.9147 27.8501 24.075 28.0363 24.2774 28.1669C24.4797 28.2974 24.7154 28.3668 24.9563 28.3665H24.9531Z" fill="white"/>
</g>
<defs>
<clipPath id="clip0_2022_157">
<rect width="80" height="80" fill="white" transform="translate(0 0.443115)"/>
</clipPath>
</defs>
</svg>
