<svg width="80" height="81" viewBox="0 0 80 81" fill="none" xmlns="http://www.w3.org/2000/svg">
<path d="M78.0969 44.7057H72.0781C71.0531 44.7057 70.2172 45.5229 70.1813 46.5401H70.0235C68.5047 46.5401 67.2297 46.0322 66.1266 44.9916C64.0563 43.026 61.6969 41.9869 59.1156 41.9026C59.1016 41.9026 59.0891 41.9026 59.075 41.9026H51.311C49.1516 41.9026 47.3953 43.6604 47.3953 45.8229C47.3953 46.3229 47.4907 46.801 47.6625 47.2401H46.0844C45.2532 45.4744 44.1844 43.7573 42.8844 42.1135C42.036 41.0369 41.1344 40.0557 40.275 39.1572C41.0516 38.3276 41.5266 37.2135 41.5266 35.9916C41.5266 34.951 41.1813 33.9885 40.6016 33.2135C41.9782 32.4072 42.9047 30.9135 42.9047 29.2072C42.9047 28.2479 42.611 27.3557 42.1094 26.6151C43.6703 25.8666 44.7516 24.2713 44.7516 22.4276C44.7516 20.5838 43.6703 18.9869 42.1078 18.2385C42.611 17.4963 42.9047 16.6025 42.9047 15.6416C42.9047 13.0822 40.8219 10.9994 38.2625 10.9994H35.0844L35.4578 9.01817C35.5875 8.33223 35.9844 6.24317 34.4157 4.82285C33.3203 3.83535 31.7516 3.70566 30.5125 4.49785L29.7735 4.96816C29.5203 5.13223 29.25 5.13067 28.9891 4.96348L28.2516 4.49316C27.1766 3.80879 25.8438 3.81035 24.7766 4.49316L24.0282 4.96816C23.7766 5.13066 23.5 5.13067 23.2422 4.96348L22.5141 4.49941C21.275 3.70723 19.7079 3.83691 18.6141 4.82285C17.0407 6.23848 17.4375 8.33067 17.5672 9.01817L18.2469 12.6072C17.936 12.7838 17.6282 12.9791 17.3204 13.1994L16.6391 13.6869C15.286 14.6525 13.886 15.1025 12.2313 15.1025H9.82192V13.5072C9.82192 12.4588 8.96879 11.6072 7.92192 11.6072H1.90317C0.854736 11.6072 0.00317383 12.4604 0.00317383 13.5072V37.9385C0.00317383 38.9869 0.856298 39.8385 1.90317 39.8385H7.92192C8.97036 39.8385 9.82192 38.9854 9.82192 37.9385V37.2291H12.7985C13.436 37.2291 14.0204 37.2932 14.586 37.4307C14.2516 37.7619 13.911 38.0947 13.5641 38.4338C13.225 38.7651 12.8829 39.0994 12.5407 39.4369C7.57505 44.3494 4.83911 50.3588 4.83911 56.3588C4.83911 67.6901 14.5625 76.9104 26.5157 76.9104C33.7703 76.9104 40.2032 73.5135 44.1407 68.3088C44.5625 68.4791 45.0172 68.5698 45.486 68.5698H58.7781C62.8203 68.5698 64.7016 67.2276 66.2141 66.1495C67.3985 65.3041 68.2563 64.6948 70.0235 64.6948H70.1813C70.2172 65.712 71.0531 66.5291 72.0781 66.5291H78.0969C79.1453 66.5291 79.9969 65.676 79.9969 64.6291V46.6057C79.9969 45.5573 79.1453 44.7057 78.0969 44.7057ZM37.8203 37.9151C37.5375 38.0541 37.2203 38.1338 36.8844 38.1338H30.325C29.1422 38.1338 28.1813 37.1729 28.1813 35.9901C28.1813 34.8072 29.1422 33.8463 30.325 33.8463H31.7032H36.886C38.0672 33.8463 39.0297 34.8072 39.0297 35.9901C39.0297 36.8119 38.5641 37.526 37.8828 37.8869C37.861 37.8947 37.8407 37.9041 37.8203 37.9151ZM22.8188 23.7979C23.3313 22.7869 23.6266 21.6494 23.6438 20.4447L26.5578 19.665L27.661 23.7744C27.8578 24.5072 28.2219 25.1494 28.6985 25.676C28.4313 25.9041 28.1907 26.1604 27.9813 26.4401H22.9328C22.9547 25.6104 22.9172 24.7307 22.8188 23.7979ZM40.4047 29.2041C40.4047 30.3854 39.4438 31.3479 38.261 31.3479H36.8828H31.7C30.5188 31.3479 29.5563 30.3869 29.5563 29.2041C29.5563 28.2026 30.261 27.3369 31.225 27.1166C31.525 27.1776 31.8297 27.2119 32.1422 27.2119C32.5219 27.2119 32.9094 27.1635 33.2938 27.0651H33.5469H38.2594C39.4438 27.0651 40.4047 28.0244 40.4047 29.2041ZM40.1078 24.5666H38.261H36.3282C36.7875 23.6026 36.9219 22.4776 36.625 21.3682L36.3328 20.2791H38.261H40.1078C41.2907 20.2791 42.2516 21.2401 42.2516 22.4229C42.2516 23.6057 41.2907 24.5666 40.1078 24.5666ZM38.261 13.4932C39.4422 13.4932 40.4047 14.4541 40.4047 15.6369C40.4047 16.8197 39.4438 17.7807 38.261 17.7807H35.6625L34.5719 13.7057L34.6125 13.4932H38.261ZM20.2875 6.67442C20.5438 6.44317 20.8813 6.41504 21.1719 6.60098L21.8954 7.06035C22.9719 7.75723 24.3094 7.75723 25.3782 7.0666L26.1219 6.59473C26.375 6.43223 26.6563 6.43379 26.911 6.59629L27.6438 7.06348C28.7219 7.75567 30.0594 7.75567 31.125 7.0666L31.8578 6.59942C32.1485 6.41348 32.4875 6.44317 32.7438 6.67285C32.9703 6.87754 33.2438 7.29473 33.0063 8.54942L32.6469 10.4572C31.4547 9.53692 29.8641 9.16973 28.2907 9.59004L20.6094 11.6479L20.0219 8.54942C19.786 7.29629 20.0594 6.8791 20.2875 6.67442ZM7.32348 37.3401H2.50005V14.1041H7.32348V37.3401ZM9.82192 34.7307V17.5947H12.2313C14.4016 17.5947 16.3188 16.9791 18.0907 15.715L18.7735 15.2275C19.5563 14.6682 20.2875 14.3213 21.2172 14.0713L28.9313 12.0025C30.225 11.6572 31.5922 12.4166 31.9797 13.6963C31.9985 13.7557 32.0203 13.8135 32.0453 13.8682C32.0453 13.8729 32.0469 13.8791 32.0469 13.8838C32.0485 13.8994 32.0516 13.915 32.0532 13.9307C32.0563 13.951 32.0594 13.9729 32.0641 13.9932C32.0672 14.0119 32.0719 14.0291 32.0766 14.0479C32.0782 14.0572 32.0797 14.0666 32.0828 14.076L34.2094 22.0135C34.4985 23.0932 33.9063 24.2041 32.8766 24.5807C32.8141 24.5963 32.7547 24.6151 32.6953 24.6385C31.5532 24.9432 30.3766 24.2651 30.0719 23.1244L28.6453 17.8088C28.4672 17.1432 27.7813 16.7479 27.1157 16.926L22.0704 18.2775C21.5235 18.4244 21.1438 18.9182 21.1438 19.4838V20.3338C21.1438 23.1963 18.8157 25.5244 15.9532 25.5244C15.2625 25.5244 14.7047 26.0838 14.7047 26.7729C14.7047 27.4635 15.2641 28.0213 15.9532 28.0213C17.6204 28.0213 19.1625 27.4869 20.4235 26.5822C20.411 26.8901 20.3907 27.1901 20.361 27.4807C20.3547 27.5182 20.35 27.5541 20.3469 27.5932C19.9782 30.8588 18.5079 33.1947 16.5047 35.4291C15.3297 34.9526 14.1297 34.7276 12.7954 34.7276H9.82192V34.7307ZM26.5157 74.412C15.9407 74.412 7.33754 66.3135 7.33754 56.3588C7.33754 51.0307 9.80942 45.6526 14.2969 41.2135C14.636 40.8776 14.9735 40.5479 15.3079 40.2213C16.1282 39.4213 16.9391 38.6276 17.7094 37.8135C17.7141 37.8073 17.7204 37.8026 17.725 37.7963C20.0485 35.3354 21.9953 32.6651 22.6782 28.9385H27.0688C27.0641 29.026 27.061 29.1151 27.061 29.2041C27.061 30.2447 27.4063 31.2072 27.986 31.9822C26.6094 32.7885 25.6828 34.2822 25.6828 35.9901C25.6828 38.5494 27.7657 40.6323 30.325 40.6323H36.8844C37.2969 40.6323 37.6969 40.5776 38.0766 40.476C39.011 41.4416 40.0125 42.5057 40.9219 43.6604C42.2469 45.3354 43.3047 47.0901 44.086 48.8885C44.1094 48.9573 44.1375 49.0229 44.1703 49.0854C44.7703 50.5057 45.1953 51.9526 45.4422 53.4073C45.4453 53.4244 45.4485 53.4432 45.4516 53.4604C45.6125 54.4244 45.6938 55.3932 45.6938 56.3588C45.6938 56.8307 45.675 57.2979 45.636 57.7604C45.6344 57.7729 45.6328 57.7854 45.6328 57.7994C44.85 67.0823 36.575 74.412 26.5157 74.412ZM64.7641 64.1151C63.3531 65.1213 62.0203 66.0713 58.7781 66.0713H45.6141C46.0188 65.3588 46.3813 64.6213 46.6969 63.8604H52.3688C53.0594 63.8604 53.6172 63.301 53.6172 62.612C53.6172 61.9213 53.0578 61.3635 52.3688 61.3635H47.5407C47.7328 60.6416 47.8828 59.9041 47.9907 59.1526H50.3438C51.0344 59.1526 51.5922 58.5932 51.5922 57.9041C51.5922 57.2135 51.0328 56.6557 50.3438 56.6557H48.1875C48.1891 56.5573 48.1922 56.4588 48.1922 56.3588C48.1922 55.7213 48.161 55.0823 48.1 54.4448H52.3688C53.0594 54.4448 53.6172 53.8854 53.6172 53.1963C53.6172 52.5073 53.0578 51.9479 52.3688 51.9479H47.7032C47.5391 51.2073 47.3344 50.4698 47.0875 49.7369H51.311H57.8469C58.0203 52.0244 59.2516 54.0901 61.2172 55.3432C62.3875 56.0885 63.7406 56.4823 65.1297 56.4823C65.8203 56.4823 66.3781 55.9229 66.3781 55.2338C66.3781 54.5448 65.8188 53.9854 65.1297 53.9854C64.2156 53.9854 63.3266 53.726 62.5594 53.2385C61.1594 52.3463 60.325 50.8291 60.325 49.1807V48.4901C60.325 47.7994 59.7656 47.2416 59.0766 47.2416H51.3125C50.5313 47.2416 49.8953 46.6057 49.8953 45.8244C49.8953 45.0401 50.5313 44.4026 51.3125 44.4026H59.0563C61 44.4713 62.8016 45.2791 64.4125 46.8073C65.9813 48.2885 67.8703 49.0385 70.0266 49.0385H70.1813V62.1979H70.0266C67.4563 62.1963 66.025 63.2166 64.7641 64.1151ZM77.5 64.0307H72.6766V47.2041H77.5V64.0307ZM30.4703 58.1041C30.4703 59.7994 29.4391 61.2573 27.9719 61.8869V63.5338C27.9719 64.2229 27.4125 64.7823 26.7235 64.7823C26.0344 64.7823 25.475 64.2229 25.475 63.5338V62.2088C24.5578 62.1604 23.6797 61.8073 22.9813 61.1948C22.4625 60.7401 22.411 59.951 22.8657 59.4323C23.3203 58.9135 24.1094 58.8619 24.6282 59.3166C24.925 59.576 25.3016 59.7198 25.6907 59.7198H26.3547C27.2469 59.7198 27.9719 58.9948 27.9719 58.1026C27.9719 57.2494 27.2797 56.5244 26.4297 56.4838C26.3672 56.4807 26.3047 56.4713 26.2453 56.4604C24.1563 56.2448 22.5547 54.4963 22.5547 52.3713C22.5547 50.5166 23.786 48.9448 25.4735 48.4307V46.9369C25.4735 46.2463 26.0328 45.6885 26.7219 45.6885C27.411 45.6885 27.9703 46.2479 27.9703 46.9369V48.3057C28.736 48.4276 29.4578 48.7619 30.0469 49.2838C30.5625 49.7416 30.611 50.5307 30.1532 51.0463C29.6953 51.5619 28.9063 51.6104 28.3891 51.1526C28.0953 50.8932 27.7203 50.7494 27.3313 50.7494H26.6672C25.775 50.7494 25.05 51.476 25.05 52.3713C25.05 53.226 25.7485 53.9494 26.6063 53.9838C26.6782 53.9869 26.7469 53.9963 26.8157 54.0119C28.8875 54.2463 30.4703 55.9916 30.4703 58.1041Z" fill="white"/>
</svg>
