<svg width="94" height="94" viewBox="0 0 94 94" fill="none" xmlns="http://www.w3.org/2000/svg">
<g clip-path="url(#clip0_2145_3)">
<path d="M64.8787 28.5159L45.7839 41.8862C40.1779 37.871 32.4271 37.6068 26.4586 41.786C18.8893 47.0861 17.0451 57.5449 22.3452 65.1142C27.6453 72.6835 38.1041 74.5277 45.6734 69.2276C51.6419 65.0484 54.0446 57.6747 52.1889 51.0334L52.9893 50.473L60.7653 51.8441L62.1365 44.0681L69.9125 45.4392L72.5907 29.7956L64.8787 28.5159ZM40.8697 62.3672C37.0965 65.0092 31.8476 64.0837 29.2056 60.3105C26.5636 56.5373 27.4891 51.2884 31.2623 48.6464C35.0355 46.0044 40.2844 46.9299 42.9264 50.7031C45.5684 54.4763 44.6429 59.7252 40.8697 62.3672Z" fill="#54F4FC"/>
</g>
<defs>
<clipPath id="clip0_2145_3">
<rect width="67" height="67" fill="white" transform="translate(14 14)"/>
</clipPath>
</defs>
</svg>
