<svg width="32" height="35" viewBox="0 0 32 35" fill="none" xmlns="http://www.w3.org/2000/svg">
<path d="M24.5676 2.08759C22.9871 1.69254 21.3732 1.43786 19.7594 1.23716C15.3125 0.641087 10.7853 1.14348 6.45206 2.20828C4.22211 2.74401 2.05885 3.54745 0.0229351 4.59891C0.00959729 5.443 -0.00373863 6.28678 0.056599 7.13056H3.89407C4.14177 7.10388 4.3828 7.04354 4.61716 6.9632C7.38984 5.96509 10.3095 5.46968 13.2229 5.13465C15.3592 5.00095 17.5154 5.02095 19.6387 5.29565C22.277 5.65704 24.9227 6.19278 27.414 7.16389C27.4073 7.73996 27.414 8.30904 27.4207 8.88511C27.4073 10.5123 27.4207 12.1332 27.4207 13.7607C27.4207 15.5553 27.126 17.3501 26.4832 19.0244C26.4295 19.165 26.3692 19.3057 26.3155 19.4464C26.2352 19.6138 26.1548 19.7811 26.0745 19.9418C25.9338 20.2165 25.7998 20.4909 25.6524 20.7656C25.4651 21.1206 25.2574 21.462 25.0564 21.8104C24.956 21.9844 24.849 22.1587 24.7486 22.3261C24.6346 22.4801 24.514 22.6341 24.4066 22.7882C22.157 25.8085 19.076 28.1458 15.7342 29.8534C14.8101 29.3313 13.8726 28.8156 12.9885 28.2195C11.5217 27.2417 10.1222 26.1366 8.90336 24.8641C8.20694 24.1543 7.5572 23.3976 6.98113 22.5871L6.88745 22.4534C6.49907 21.8974 6.15069 21.315 5.80931 20.7322C5.71563 20.5312 5.62862 20.3302 5.53462 20.1362C5.39394 19.8211 5.25357 19.5134 5.11956 19.1987C4.97221 18.8503 4.83819 18.4886 4.72419 18.1272C4.2688 16.6871 4.07476 15.1802 4.09477 13.6667C4.10144 13.3117 4.10144 12.9636 4.0881 12.6086C9.44576 12.6222 14.8034 12.6622 20.1608 12.6019C20.7972 12.7963 21.2795 13.332 21.4066 13.9881C21.6209 14.9592 21.0452 16.1983 19.9534 16.2317C17.134 16.2383 14.3144 16.2787 11.495 16.2787L11.321 16.272C11.3343 17.3301 11.3073 18.3949 11.3277 19.4597C11.3343 19.8615 11.3277 20.2568 11.3277 20.6586C11.3143 21.8774 11.3073 23.1029 11.321 24.3217C11.2873 24.5764 11.5017 24.7301 11.6624 24.8844C12.8679 25.8152 14.1337 26.6723 15.4732 27.4157L15.5268 27.235C15.4598 25.1588 15.5802 23.0828 15.4665 21.0133C15.4865 20.8259 15.5268 20.4509 15.5402 20.2635C16.1429 20.2702 16.7453 20.2635 17.3484 20.2835C17.4888 20.2835 17.7701 20.2969 17.9108 20.2969C18.0178 20.2969 18.2258 20.2902 18.3329 20.2902C18.8953 20.2835 19.458 20.2768 20.0204 20.2165L20.2414 20.1965C20.3554 20.1832 20.5695 20.1695 20.6835 20.1628C20.8038 20.1362 21.0519 20.0892 21.1789 20.0691C21.7816 19.9018 22.3644 19.6474 22.8934 19.3057C22.9604 19.2587 23.1011 19.165 23.1678 19.1114C25.4984 17.4105 26.0078 13.9414 24.6683 11.4701C24.1589 10.546 23.3688 9.80256 22.4514 9.30049C21.4469 8.71108 20.2614 8.58374 19.1163 8.60375C12.7408 8.61042 6.37172 8.59708 0.00293212 8.61708C0.0832764 11.1954 -0.111078 13.7807 0.110266 16.3524C0.424656 18.5086 1.09441 20.6116 2.11252 22.5401C2.55457 23.3372 3.00996 24.1343 3.5457 24.8777L3.55904 24.8978C5.03255 27.0073 6.87411 28.8622 8.93003 30.4094C11.0196 32.0366 13.3502 33.3294 15.7476 34.4609C20.8372 32.1573 25.6124 28.7416 28.6128 23.9466C29.4899 22.5538 30.1866 21.0536 30.6954 19.4931C30.8227 19.0914 30.9434 18.683 31.0501 18.2743C31.3181 17.1558 31.5458 16.0107 31.4992 14.8588C31.5125 12.2672 31.4655 9.66855 31.4858 7.07022V6.94954C31.4858 6.61482 31.4925 6.27979 31.4992 5.94508L31.5058 5.70405L31.5192 4.76659V4.58558C29.3159 3.47378 26.9786 2.63 24.5676 2.08759Z" fill="white"/>
</svg>
