<svg width="152" height="23" viewBox="0 0 152 23" fill="none" xmlns="http://www.w3.org/2000/svg">
<path d="M0.326832 22.7217V2.7171H8.55729C10.3291 2.7171 11.8438 3.00288 13.1012 3.57444C14.3777 4.146 15.3588 4.96524 16.0447 6.03215C16.7306 7.09906 17.0735 8.36602 17.0735 9.83302C17.0735 11.3 16.7306 12.567 16.0447 13.6339C15.3588 14.7008 14.3777 15.52 13.1012 16.0916C11.8438 16.6632 10.3291 16.9489 8.55729 16.9489H2.38445L4.04197 15.2057V22.7217H0.326832ZM4.04197 15.6058L2.38445 13.8054H8.38582C10.0243 13.8054 11.2531 13.4624 12.0724 12.7765C12.9107 12.0716 13.3298 11.0904 13.3298 9.83302C13.3298 8.55653 12.9107 7.57536 12.0724 6.88949C11.2531 6.20362 10.0243 5.86068 8.38582 5.86068H2.38445L4.04197 4.03169V15.6058ZM27.5578 22.9217C25.8622 22.9217 24.3762 22.5883 23.0997 21.9215C21.8422 21.2356 20.8611 20.3021 20.1561 19.1209C19.4703 17.9396 19.1273 16.5965 19.1273 15.0914C19.1273 13.5672 19.4607 12.224 20.1276 11.0619C20.8134 9.88065 21.747 8.95663 22.9282 8.28981C24.1285 7.62299 25.4907 7.28958 27.0149 7.28958C28.5009 7.28958 29.825 7.61346 30.9872 8.26123C32.1494 8.909 33.0639 9.82349 33.7307 11.0047C34.3975 12.1859 34.7309 13.5767 34.7309 15.1771C34.7309 15.3295 34.7214 15.501 34.7023 15.6915C34.7023 15.882 34.6928 16.063 34.6738 16.2345H21.9566V13.8625H32.7876L31.3873 14.6055C31.4063 13.7291 31.2253 12.9575 30.8443 12.2907C30.4633 11.6239 29.9393 11.1 29.2725 10.7189C28.6247 10.3379 27.8722 10.1474 27.0149 10.1474C26.1385 10.1474 25.3669 10.3379 24.7 10.7189C24.0523 11.1 23.5379 11.6334 23.1568 12.3193C22.7948 12.9861 22.6138 13.7768 22.6138 14.6913V15.2628C22.6138 16.1773 22.8234 16.987 23.2426 17.692C23.6617 18.3969 24.2523 18.9399 25.0144 19.3209C25.7765 19.7019 26.6529 19.8925 27.6436 19.8925C28.5009 19.8925 29.2725 19.7591 29.9584 19.4924C30.6443 19.2256 31.2539 18.8065 31.7874 18.2349L33.7021 20.4354C33.0162 21.2356 32.1494 21.8548 31.1015 22.293C30.0727 22.7122 28.8915 22.9217 27.5578 22.9217ZM45.3353 22.9217C43.6397 22.9217 42.1537 22.5883 40.8772 21.9215C39.6197 21.2356 38.6386 20.3021 37.9336 19.1209C37.2478 17.9396 36.9048 16.5965 36.9048 15.0914C36.9048 13.5672 37.2383 12.224 37.9051 11.0619C38.5909 9.88065 39.5245 8.95663 40.7057 8.28981C41.906 7.62299 43.2682 7.28958 44.7924 7.28958C46.2784 7.28958 47.6025 7.61346 48.7647 8.26123C49.9269 8.909 50.8414 9.82349 51.5082 11.0047C52.175 12.1859 52.5084 13.5767 52.5084 15.1771C52.5084 15.3295 52.4989 15.501 52.4798 15.6915C52.4798 15.882 52.4703 16.063 52.4513 16.2345H39.7341V13.8625H50.5651L49.1648 14.6055C49.1838 13.7291 49.0028 12.9575 48.6218 12.2907C48.2408 11.6239 47.7168 11.1 47.05 10.7189C46.4023 10.3379 45.6497 10.1474 44.7924 10.1474C43.916 10.1474 43.1444 10.3379 42.4775 10.7189C41.8298 11.1 41.3154 11.6334 40.9343 12.3193C40.5723 12.9861 40.3914 13.7768 40.3914 14.6913V15.2628C40.3914 16.1773 40.6009 16.987 41.0201 17.692C41.4392 18.3969 42.0298 18.9399 42.7919 19.3209C43.554 19.7019 44.4304 19.8925 45.4211 19.8925C46.2784 19.8925 47.05 19.7591 47.7359 19.4924C48.4218 19.2256 49.0314 18.8065 49.5649 18.2349L51.4796 20.4354C50.7937 21.2356 49.9269 21.8548 48.879 22.293C47.8502 22.7122 46.669 22.9217 45.3353 22.9217ZM55.9398 22.7217V7.46105H59.3406V11.662L58.9405 10.4332C59.3977 9.40435 60.1122 8.62322 61.0838 8.08976C62.0745 7.55631 63.3034 7.28958 64.7704 7.28958V10.6904C64.618 10.6523 64.4751 10.6332 64.3417 10.6332C64.2083 10.6141 64.075 10.6046 63.9416 10.6046C62.5889 10.6046 61.5125 11.0047 60.7123 11.8049C59.9121 12.586 59.512 13.7577 59.512 15.32V22.7217H55.9398ZM72.6557 22.9217C71.3792 22.9217 70.1503 22.7598 68.9691 22.4359C67.8069 22.093 66.8829 21.6833 66.197 21.207L67.5688 18.4921C68.2546 18.9303 69.0739 19.2923 70.0265 19.5781C70.9791 19.8639 71.9317 20.0068 72.8843 20.0068C74.0083 20.0068 74.8181 19.8544 75.3134 19.5495C75.8278 19.2447 76.085 18.8351 76.085 18.3207C76.085 17.9015 75.9135 17.5872 75.5706 17.3776C75.2277 17.149 74.7799 16.9775 74.2274 16.8632C73.6749 16.7489 73.0557 16.6441 72.3699 16.5488C71.7031 16.4536 71.0267 16.3297 70.3408 16.1773C69.674 16.0059 69.0644 15.7677 68.5118 15.4629C67.9593 15.139 67.5116 14.7103 67.1687 14.1769C66.8257 13.6434 66.6543 12.9385 66.6543 12.0621C66.6543 11.0904 66.9305 10.2522 67.483 9.54724C68.0355 8.82326 68.8072 8.27075 69.7979 7.88971C70.8076 7.48962 71.9984 7.28958 73.3701 7.28958C74.3989 7.28958 75.4372 7.40389 76.4851 7.63251C77.533 7.86114 78.3998 8.18502 79.0857 8.60416L77.714 11.3191C76.99 10.8809 76.2565 10.5856 75.5134 10.4332C74.7895 10.2617 74.0655 10.176 73.3415 10.176C72.2556 10.176 71.4459 10.3379 70.9124 10.6618C70.398 10.9857 70.1408 11.3953 70.1408 11.8906C70.1408 12.3479 70.3123 12.6908 70.6552 12.9194C70.9981 13.1481 71.4459 13.3291 71.9984 13.4624C72.5509 13.5958 73.1605 13.7101 73.8273 13.8054C74.5132 13.8816 75.1896 14.0054 75.8564 14.1769C76.5232 14.3483 77.1329 14.5865 77.6854 14.8913C78.2569 15.1771 78.7142 15.5867 79.0571 16.1202C79.4001 16.6536 79.5715 17.349 79.5715 18.2064C79.5715 19.159 79.2857 19.9877 78.7142 20.6926C78.1617 21.3976 77.371 21.9501 76.3422 22.3502C75.3134 22.7312 74.0845 22.9217 72.6557 22.9217ZM91.307 7.28958C92.5263 7.28958 93.6123 7.52773 94.5649 8.00403C95.5366 8.48033 96.2986 9.21383 96.8511 10.2045C97.4036 11.1762 97.6799 12.4336 97.6799 13.9768V22.7217H94.1077V14.4341C94.1077 13.0814 93.7838 12.0716 93.136 11.4048C92.5073 10.738 91.6214 10.4046 90.4783 10.4046C89.64 10.4046 88.8969 10.576 88.2492 10.919C87.6014 11.2619 87.0965 11.7763 86.7345 12.4622C86.3916 13.129 86.2201 13.9768 86.2201 15.0056V22.7217H82.6479V1.51683H86.2201V11.5763L85.4485 10.3188C85.982 9.34719 86.7536 8.60416 87.7633 8.08976C88.7922 7.55631 89.9734 7.28958 91.307 7.28958ZM102.212 22.7217V7.46105H105.784V22.7217H102.212ZM104.012 4.94618C103.345 4.94618 102.793 4.73661 102.354 4.31747C101.935 3.89833 101.726 3.39345 101.726 2.80284C101.726 2.19317 101.935 1.6883 102.354 1.2882C102.793 0.869062 103.345 0.65949 104.012 0.65949C104.679 0.65949 105.222 0.859536 105.641 1.25963C106.079 1.64067 106.298 2.12649 106.298 2.7171C106.298 3.34582 106.089 3.87927 105.669 4.31747C105.25 4.73661 104.698 4.94618 104.012 4.94618ZM117.645 22.9217C115.95 22.9217 114.464 22.5883 113.187 21.9215C111.93 21.2356 110.949 20.3021 110.244 19.1209C109.558 17.9396 109.215 16.5965 109.215 15.0914C109.215 13.5672 109.548 12.224 110.215 11.0619C110.901 9.88065 111.835 8.95663 113.016 8.28981C114.216 7.62299 115.578 7.28958 117.102 7.28958C118.588 7.28958 119.913 7.61346 121.075 8.26123C122.237 8.909 123.151 9.82349 123.818 11.0047C124.485 12.1859 124.818 13.5767 124.818 15.1771C124.818 15.3295 124.809 15.501 124.79 15.6915C124.79 15.882 124.78 16.063 124.761 16.2345H112.044V13.8625H122.875L121.475 14.6055C121.494 13.7291 121.313 12.9575 120.932 12.2907C120.551 11.6239 120.027 11.1 119.36 10.7189C118.712 10.3379 117.96 10.1474 117.102 10.1474C116.226 10.1474 115.454 10.3379 114.788 10.7189C114.14 11.1 113.625 11.6334 113.244 12.3193C112.882 12.9861 112.701 13.7768 112.701 14.6913V15.2628C112.701 16.1773 112.911 16.987 113.33 17.692C113.749 18.3969 114.34 18.9399 115.102 19.3209C115.864 19.7019 116.74 19.8925 117.731 19.8925C118.588 19.8925 119.36 19.7591 120.046 19.4924C120.732 19.2256 121.341 18.8065 121.875 18.2349L123.79 20.4354C123.104 21.2356 122.237 21.8548 121.189 22.293C120.16 22.7122 118.979 22.9217 117.645 22.9217ZM128.25 22.7217V1.51683H131.822V22.7217H128.25ZM142.969 22.9217C141.502 22.9217 140.178 22.5978 138.997 21.9501C137.835 21.2833 136.92 20.3688 136.253 19.2066C135.587 18.0444 135.253 16.6727 135.253 15.0914C135.253 13.51 135.587 12.1383 136.253 10.9761C136.92 9.81396 137.835 8.909 138.997 8.26123C140.178 7.61346 141.502 7.28958 142.969 7.28958C144.246 7.28958 145.389 7.57536 146.399 8.14692C147.408 8.69942 148.209 9.54724 148.799 10.6904C149.39 11.8335 149.685 13.3005 149.685 15.0914C149.685 16.8632 149.399 18.3302 148.828 19.4924C148.256 20.6355 147.466 21.4928 146.456 22.0644C145.446 22.6359 144.284 22.9217 142.969 22.9217ZM143.398 19.8639C144.255 19.8639 145.017 19.6734 145.684 19.2923C146.37 18.9113 146.913 18.3588 147.313 17.6348C147.732 16.9108 147.942 16.063 147.942 15.0914C147.942 14.1007 147.732 13.2528 147.313 12.5479C146.913 11.8239 146.37 11.2714 145.684 10.8904C145.017 10.5094 144.255 10.3188 143.398 10.3188C142.541 10.3188 141.769 10.5094 141.083 10.8904C140.416 11.2714 139.873 11.8239 139.454 12.5479C139.054 13.2528 138.854 14.1007 138.854 15.0914C138.854 16.063 139.054 16.9108 139.454 17.6348C139.873 18.3588 140.416 18.9113 141.083 19.2923C141.769 19.6734 142.541 19.8639 143.398 19.8639ZM148.028 22.7217V19.1209L148.17 15.0628L147.885 11.0047V1.51683H151.428V22.7217H148.028Z" fill="white"/>
</svg>
