<svg width="94" height="94" viewBox="0 0 94 94" fill="none" xmlns="http://www.w3.org/2000/svg">
<g clip-path="url(#clip0_1_78)">
<path d="M64.25 36.3333H61.4584V30.75C61.4584 23.045 55.205 16.7917 47.5 16.7917C39.795 16.7917 33.5417 23.045 33.5417 30.75V36.3333H30.75C27.6792 36.3333 25.1667 38.8458 25.1667 41.9167V69.8333C25.1667 72.9042 27.6792 75.4167 30.75 75.4167H64.25C67.3209 75.4167 69.8334 72.9042 69.8334 69.8333V41.9167C69.8334 38.8458 67.3209 36.3333 64.25 36.3333ZM47.5 61.4583C44.4292 61.4583 41.9167 58.9458 41.9167 55.875C41.9167 52.8042 44.4292 50.2917 47.5 50.2917C50.5709 50.2917 53.0834 52.8042 53.0834 55.875C53.0834 58.9458 50.5709 61.4583 47.5 61.4583ZM56.1542 36.3333H38.8459V30.75C38.8459 25.9763 42.7263 22.0958 47.5 22.0958C52.2738 22.0958 56.1542 25.9763 56.1542 30.75V36.3333Z" fill="#54F4FC"/>
</g>
<defs>
<clipPath id="clip0_1_78">
<rect width="67" height="67" fill="white" transform="translate(14 14)"/>
</clipPath>
</defs>
</svg>
